<svg width="95" height="95" viewBox="0 0 95 95" fill="none" xmlns="http://www.w3.org/2000/svg">
<path fill-rule="evenodd" clip-rule="evenodd" d="M51.1652 42.0301C45.1383 42.2989 38.1236 43.2164 33.0227 45.7971C24.51 50.1094 22.094 58.8302 30.7972 62.4417C38.5915 62.9349 47.4067 59.6618 55.5725 50.2219C58.8124 62.3721 56.3007 72.2187 46.2901 79.0687C54.4988 79.5014 59.3844 82.3594 62.6314 86.4296C76.9549 80.3506 87 66.1481 87 49.5986C87 40.9649 84.2729 32.9715 79.6222 26.4416C71.4558 39.8912 59.3395 45.5375 51.1652 42.0301Z" fill="url(#paint0_linear)"/>
<path fill-rule="evenodd" clip-rule="evenodd" d="M58.4656 26.1476C56.7509 26.1476 55.3565 24.7623 55.3565 23.0476C55.3565 21.3324 56.7509 19.9385 58.4656 19.9385C60.1809 19.9385 61.5662 21.3324 61.5662 23.0476C61.5662 24.7623 60.1809 26.1476 58.4656 26.1476ZM47 9.59866C43.8219 9.59866 40.7213 9.97086 37.7599 10.6723C23.0817 14.1452 11.529 25.7064 8.06522 40.3846C8.06522 50.794 18.0673 61.6453 30.7972 62.4418C22.094 58.8303 24.51 50.1095 33.0227 45.7972C38.1236 43.2165 45.1383 42.299 51.1652 42.0302C59.3395 45.5376 71.4558 39.8913 79.6222 26.4417C72.3733 16.2496 60.4659 9.59866 47 9.59866Z" fill="url(#paint1_linear)"/>
<path fill-rule="evenodd" clip-rule="evenodd" d="M8.06517 40.3845C11.5289 25.7064 23.0817 14.1451 37.7598 10.6723C34.1835 8.2822 30.3293 6.30795 26.0086 5.00001C11.3207 14.0846 7.89143 27.8362 8.06517 40.3845Z" fill="url(#paint2_linear)"/>
<path fill-rule="evenodd" clip-rule="evenodd" d="M42.5921 19.4713C18.9595 24.4506 5.03356 56.0596 30.7972 62.4418C22.094 58.8303 24.5101 50.1095 33.0227 45.7972C38.1236 43.2165 45.1383 42.299 51.1652 42.0302C45.234 39.484 41.3798 32.1323 42.5921 19.4713Z" fill="url(#paint3_linear)"/>
<path fill-rule="evenodd" clip-rule="evenodd" d="M46.2901 79.0687C56.3007 72.2187 58.8124 62.3721 55.5725 50.222C47.4067 59.6619 38.5915 62.935 30.7972 62.4417C18.0673 61.6452 8.06521 50.794 8.06521 40.3845C7.3722 43.3465 7 46.4296 7 49.5986C7 71.6909 24.9083 89.5992 47 89.5992C52.5428 89.5992 57.8246 88.4742 62.6314 86.4296C59.3844 82.3594 54.4988 79.5015 46.2901 79.0687Z" fill="url(#paint4_linear)"/>
<path fill-rule="evenodd" clip-rule="evenodd" d="M46.2901 79.0687C56.3007 72.2187 58.8124 62.3721 55.5725 50.222C49.2346 76.7828 22.7004 83.07 9.38095 63.2298C14.9582 78.61 29.6975 89.5992 47 89.5992C52.5428 89.5992 57.8246 88.4742 62.6314 86.4296C59.3844 82.3594 54.4988 79.5015 46.2901 79.0687Z" fill="url(#paint5_linear)"/>
<defs>
<linearGradient id="paint0_linear" x1="56.1691" y1="86.4296" x2="56.1691" y2="26.5347" gradientUnits="userSpaceOnUse">
<stop stop-color="#51D3EF"/>
<stop offset="1" stop-color="#16EEE1" stop-opacity="0"/>
</linearGradient>
<linearGradient id="paint1_linear" x1="43.8437" y1="62.4418" x2="43.8437" y2="9.59865" gradientUnits="userSpaceOnUse">
<stop stop-color="#006ED5"/>
<stop offset="1" stop-color="#208FF5" stop-opacity="0"/>
</linearGradient>
<linearGradient id="paint2_linear" x1="22.9094" y1="40.3845" x2="22.9094" y2="5.00001" gradientUnits="userSpaceOnUse">
<stop stop-color="#006ED5"/>
<stop offset="1" stop-color="#208FF5" stop-opacity="0"/>
</linearGradient>
<linearGradient id="paint3_linear" x1="34.07" y1="62.4418" x2="34.07" y2="19.4713" gradientUnits="userSpaceOnUse">
<stop stop-color="#006ED5"/>
<stop offset="1" stop-color="#208FF5" stop-opacity="0"/>
</linearGradient>
<linearGradient id="paint4_linear" x1="34.8157" y1="89.5992" x2="34.8157" y2="40.3845" gradientUnits="userSpaceOnUse">
<stop stop-color="#006ED5"/>
<stop offset="1" stop-color="#208FF5" stop-opacity="0"/>
</linearGradient>
<linearGradient id="paint5_linear" x1="36.0062" y1="89.5992" x2="36.0062" y2="50.222" gradientUnits="userSpaceOnUse">
<stop stop-color="#006ED5"/>
<stop offset="1" stop-color="#208FF5" stop-opacity="0"/>
</linearGradient>
</defs>
</svg>
