<svg width="30" height="30" viewBox="0 0 30 30" fill="none" xmlns="http://www.w3.org/2000/svg">
<path d="M28.1131 8.77842C27.8407 8.42664 27.4905 8.14283 27.0899 7.94932C26.6893 7.75581 26.2493 7.65787 25.8044 7.66321H9.29132L7.86306 5.07081C7.6326 4.66554 7.29787 4.32935 6.89362 4.09712C6.48936 3.86488 6.03032 3.74509 5.56414 3.75015H2.22826C1.96881 3.75015 1.71999 3.85322 1.53653 4.03668C1.35307 4.22014 1.25 4.46897 1.25 4.72842C1.25 4.98787 1.35307 5.23669 1.53653 5.42015C1.71999 5.60361 1.96881 5.70668 2.22826 5.70668H5.56414C5.67991 5.70173 5.79497 5.7271 5.89793 5.78029C6.00088 5.83348 6.08815 5.91265 6.1511 6.00994L7.76523 8.94473L8.60654 18.0621C8.7193 19.0061 9.1858 19.8723 9.91198 20.4859C10.6382 21.0995 11.57 21.415 12.5196 21.3687H22.6642C23.503 21.3899 24.3257 21.1353 25.006 20.6441C25.6863 20.1529 26.1867 19.452 26.4305 18.6491L28.5533 10.9991C28.6579 10.6202 28.6726 10.2222 28.5961 9.83663C28.5197 9.45109 28.3543 9.08874 28.1131 8.77842V8.77842ZM26.6848 10.461L24.562 18.1208C24.4298 18.5129 24.1724 18.8506 23.8296 19.0822C23.4867 19.3137 23.0772 19.4262 22.6642 19.4024H12.4805C12.0232 19.4359 11.5697 19.2983 11.2082 19.0163C10.8466 18.7343 10.6028 18.328 10.5239 17.8763L9.79023 9.61973H25.8044C25.9473 9.6183 26.0889 9.64821 26.219 9.70737C26.3491 9.76652 26.4647 9.85348 26.5577 9.96212C26.616 10.0298 26.6579 10.11 26.68 10.1966C26.702 10.2832 26.7037 10.3737 26.6848 10.461V10.461Z" fill="#00407B"/>
<path d="M12.9892 26.2502C14.0697 26.2502 14.9457 25.3742 14.9457 24.2937C14.9457 23.2131 14.0697 22.3372 12.9892 22.3372C11.9086 22.3372 11.0327 23.2131 11.0327 24.2937C11.0327 25.3742 11.9086 26.2502 12.9892 26.2502Z" fill="#00407B"/>
<path d="M22.7718 26.2502C23.8523 26.2502 24.7283 25.3742 24.7283 24.2937C24.7283 23.2131 23.8523 22.3372 22.7718 22.3372C21.6912 22.3372 20.8152 23.2131 20.8152 24.2937C20.8152 25.3742 21.6912 26.2502 22.7718 26.2502Z" fill="#00407B"/>
</svg>
