<svg width="150" height="50" viewBox="0 0 150 50" fill="none" xmlns="http://www.w3.org/2000/svg">
<path fill-rule="evenodd" clip-rule="evenodd" d="M26.8639 22.3855C23.9257 22.5165 20.5061 22.9638 18.0194 24.2219C13.8695 26.3242 12.6916 30.5756 16.9345 32.3362C20.7342 32.5766 25.0316 30.981 29.0124 26.379C30.5919 32.3022 29.3674 37.1024 24.4872 40.4418C28.489 40.6528 30.8707 42.046 32.4536 44.0303C39.4363 41.0668 44.3333 34.1431 44.3333 26.0751C44.3333 21.8662 43.0038 17.9695 40.7366 14.7861C36.7555 21.3428 30.8488 24.0954 26.8639 22.3855" fill="url(#paint0_linear)"/>
<path fill-rule="evenodd" clip-rule="evenodd" d="M30.4228 14.6428C29.5869 14.6428 28.9071 13.9674 28.9071 13.1316C28.9071 12.2954 29.5869 11.6159 30.4228 11.6159C31.259 11.6159 31.9343 12.2954 31.9343 13.1316C31.9343 13.9674 31.259 14.6428 30.4228 14.6428ZM24.8333 6.57518C23.284 6.57518 21.7724 6.75663 20.3287 7.09859C13.1732 8.79161 7.54118 14.4277 5.8526 21.5833C5.8526 26.6579 10.7286 31.9479 16.9345 32.3362C12.6916 30.5756 13.8695 26.3242 18.0194 24.222C20.5061 22.9639 23.9257 22.5166 26.8639 22.3856C30.8488 24.0954 36.7555 21.3428 40.7366 14.7862C37.2028 9.81751 31.3979 6.57518 24.8333 6.57518" fill="url(#paint1_linear)"/>
<path fill-rule="evenodd" clip-rule="evenodd" d="M5.85259 21.5833C7.54117 14.4277 13.1731 8.79158 20.3287 7.09856C18.5853 5.9334 16.7064 4.97095 14.6 4.33333C7.43966 8.76208 5.76789 15.466 5.85259 21.5833Z" fill="url(#paint2_linear)"/>
<path fill-rule="evenodd" clip-rule="evenodd" d="M22.6844 11.3881C11.1635 13.8155 4.37466 29.2249 16.9345 32.3362C12.6916 30.5756 13.8695 26.3242 18.0194 24.222C20.5061 22.9639 23.9257 22.5166 26.8638 22.3856C23.9724 21.1443 22.0935 17.5603 22.6844 11.3881" fill="url(#paint3_linear)"/>
<path fill-rule="evenodd" clip-rule="evenodd" d="M24.4872 40.4419C29.3674 37.1024 30.5919 32.3022 29.0124 26.379C25.0316 30.981 20.7342 32.5766 16.9345 32.3362C10.7286 31.9479 5.8526 26.6579 5.8526 21.5833C5.51476 23.0273 5.33331 24.5303 5.33331 26.0751C5.33331 36.8452 14.0636 45.5755 24.8333 45.5755C27.5354 45.5755 30.1103 45.027 32.4536 44.0303C30.8707 42.0461 28.489 40.6528 24.4872 40.4419" fill="url(#paint4_linear)"/>
<path fill-rule="evenodd" clip-rule="evenodd" d="M24.4872 40.4419C29.3674 37.1024 30.5919 32.3022 29.0124 26.379C25.9226 39.3274 12.9873 42.3925 6.49402 32.7203C9.21293 40.2182 16.3984 45.5755 24.8333 45.5755C27.5354 45.5755 30.1103 45.027 32.4536 44.0303C30.8707 42.0461 28.489 40.6528 24.4872 40.4419" fill="url(#paint5_linear)"/>
<path d="M67.6173 14V35.946C67.6173 38.3892 66.8587 40.3494 65.3415 41.8267C63.8244 43.2756 61.8206 44 59.3301 44C56.811 44 54.7929 43.2614 53.2758 41.7841C51.7586 40.2784 51 38.233 51 35.6477H54.9074C54.9361 37.0966 55.3082 38.2756 56.0238 39.1847C56.7681 40.0938 57.8702 40.5483 59.3301 40.5483C60.79 40.5483 61.8778 40.1222 62.5935 39.2699C63.3091 38.3892 63.6669 37.2812 63.6669 35.946V14H67.6173Z" fill="#4FA4F8"/>
<path d="M93.0059 37.0966H79.9525L77.5479 43.7017H73.4258L84.2463 14.1705H88.7549L99.5325 43.7017H95.4104L93.0059 37.0966ZM91.8894 33.9432L86.4792 18.9432L81.0689 33.9432H91.8894Z" fill="#4FA4F8"/>
<path d="M108.156 40.5483H118.633V43.7017H104.248V14H108.156V40.5483Z" fill="#4FA4F8"/>
<path d="M140.473 37.0966H127.42L125.015 43.7017H120.893L131.714 14.1705H136.222L147 43.7017H142.878L140.473 37.0966ZM139.357 33.9432L133.947 18.9432L128.536 33.9432H139.357Z" fill="#4FA4F8"/>
<defs>
<linearGradient id="paint0_linear" x1="29.3032" y1="44.0303" x2="29.3032" y2="14.8315" gradientUnits="userSpaceOnUse">
<stop stop-color="#51D3EF"/>
<stop offset="1" stop-color="#16EEE1" stop-opacity="0"/>
</linearGradient>
<linearGradient id="paint1_linear" x1="23.2946" y1="32.3362" x2="23.2946" y2="6.57518" gradientUnits="userSpaceOnUse">
<stop stop-color="#006ED5"/>
<stop offset="1" stop-color="#208FF5" stop-opacity="0"/>
</linearGradient>
<linearGradient id="paint2_linear" x1="13.0892" y1="21.5833" x2="13.0892" y2="4.33333" gradientUnits="userSpaceOnUse">
<stop stop-color="#006ED5"/>
<stop offset="1" stop-color="#208FF5" stop-opacity="0"/>
</linearGradient>
<linearGradient id="paint3_linear" x1="18.5299" y1="32.3362" x2="18.5299" y2="11.3881" gradientUnits="userSpaceOnUse">
<stop stop-color="#006ED5"/>
<stop offset="1" stop-color="#208FF5" stop-opacity="0"/>
</linearGradient>
<linearGradient id="paint4_linear" x1="18.8935" y1="45.5755" x2="18.8935" y2="21.5833" gradientUnits="userSpaceOnUse">
<stop stop-color="#006ED5"/>
<stop offset="1" stop-color="#208FF5" stop-opacity="0"/>
</linearGradient>
<linearGradient id="paint5_linear" x1="19.4738" y1="45.5755" x2="19.4738" y2="26.379" gradientUnits="userSpaceOnUse">
<stop stop-color="#006ED5"/>
<stop offset="1" stop-color="#208FF5" stop-opacity="0"/>
</linearGradient>
</defs>
</svg>
